<?xml version="1.0" encoding="UTF-8"?>
<svg viewBox="0 0 362.73 512" xmlns="http://www.w3.org/2000/svg">
<g class="layer">
<title>Layer 1</title>
<path d="m362.74 100.62-33.05 370.2-148.54 41.18-148.14-41.12-33.01-370.26h362.74z" fill="#264de4"/>
<path d="m301.4 447.25 28.24-316.36h-148.27v349.63l120.03-33.27z" fill="#2965f1"/>
<path d="m75.68 268.22 4.07 45.41h101.62v-45.41h-105.69zm105.69-91.92h-113.87l4.13 45.42h109.74v-45.42zm0 257.1v-47.25l-0.2 0.06-50.57-13.66-3.24-36.22h-45.58l6.36 71.3 93.02 25.83 0.21-0.06z" fill="#ebebeb"/>
<path d="m85.37 0h55v23h-32v23h32v23h-55v-69zm66 0h55v20h-32v4h32v46h-55v-21h32v-4h-32v-45zm66 0h55v20h-32v4h32v46h-55v-21h32v-4h-32v-45z" fill="#fff"/>
<path d="m237.13 313.63-5.27 58.89-50.65 13.67v47.25l93.1-25.81 0.68-7.67 10.67-119.55 1.11-12.19 8.2-91.92h-113.76v45.42h63.99l-4.13 46.5h-59.86v45.41h55.92z" fill="#fff"/>
</g>
</svg>
