<?xml version="1.0" encoding="UTF-8"?>
<svg viewBox="0 0 48 48" xmlns="http://www.w3.org/2000/svg">
<path d="m28.001 19h-8.002c0 16.944-10 9.713-10 23 0 0 0.546 2 14.001 2s14.001-2 14.001-2c0-13.287-10-6.056-10-23z" fill="#689f38"/>
<path d="m28.001 19h-8.002c0 1.127-0.047 2.141-0.13 3.067 1.869 0.18 5.76 0.63 5.76 3.765 0 2.702-1.738 11.678-6.629 12.168-4.461 0.447-8.273-1.094-8.273-1.094-0.455 1.274-0.728 2.904-0.728 5.094 0 0 0.546 2 14.001 2s14.001-2 14.001-2c0-13.287-10-6.056-10-23z" fill="#33691e"/>
<path d="m26.02 14h-4.04c-1.986 1.334-3.972 2.668-5.957 4.001 0.03 0.428 0.113 0.997 0.332 1.634 0.197 0.573 0.446 1.032 0.663 1.371l6.984-0.01 6.981 0.01c0.217-0.339 0.466-0.798 0.663-1.371 0.219-0.637 0.302-1.206 0.332-1.634-1.986-1.333-3.972-2.667-5.958-4.001z" fill="#689f38"/>
<path d="m26 20.999 1.084 0.483 0.976-0.48 2.922 4e-3c0.217-0.339 0.466-0.798 0.663-1.371 0.219-0.637 0.302-1.206 0.332-1.634-1.986-1.334-3.972-2.668-5.957-4.001h-2.02l3 4-1 2.999z" fill="#33691e"/>
<circle cx="24" cy="10" r="7" fill="#689f38"/>
<path d="M27.884,4.178c0.743,1.112,1.178,2.447,1.178,3.884c0,3.016-1.907,5.586-4.581,6.571l1.544,2.07 c0.435-0.131,1.04,0.059,1.434-0.15c0.361-0.191,0.515-0.775,0.835-1.024C29.94,14.249,31,12.248,31,10 C31,7.571,29.762,5.433,27.884,4.178z" fill="#33691e"/>
<path d="m24.683 4.727c0.372 0.973-0.526 2.556-2.006 3.536-1.48 0.979-2.982 0.984-3.354 0.011s0.526-2.556 2.006-3.536 2.981-0.985 3.354-0.011z" fill="#9ccc65"/>
</svg>
