<?xml version="1.0" encoding="UTF-8"?>
<svg viewBox="0 0 383.37 258.84" xml:space="preserve" xmlns="http://www.w3.org/2000/svg">

 <g class="layer">
  <title>Layer 1</title>
  <g fill="#252525">
   <path d="m77.64 209.38v-109.46l-32.43 8.92v116.4c0 6.13-0.47 10.26-1.41 12.39-0.95 2.12-2.31 3.18-4.11 3.18-0.85 0-1.79-0.33-2.83-0.99s-2.31-1.98-3.82-3.96c-1.32-1.8-3-3.61-5.03-5.45s-4.74-2.76-8.14-2.76c-4.53 0-8.14 1.13-10.83 3.39-2.69 2.27-4.04 5.05-4.04 8.36 0 3.96 2.41 7.36 7.22 10.19 4.82 2.83 11.75 4.25 20.82 4.25 6.7 0 12.79-0.54 18.26-1.63 5.48-1.08 10.18-3.23 14.09-6.44 3.92-3.21 6.94-7.72 9.07-13.52 2.12-5.81 3.18-13.43 3.18-22.87zm45.04-106.35h-32.29v74.91c0 4.63 0.97 8.97 2.91 13.03 1.93 4.06 4.6 7.6 8 10.62s7.36 5.4 11.89 7.15 9.44 2.62 14.73 2.62c4.53 0 9.2-1.09 14.02-3.26 4.81-2.17 9.34-5.05 13.59-8.64v9.92h32.28v-106.35h-32.28v76.75c-2.46 3.78-5.33 6.92-8.64 9.42-3.3 2.5-6.18 3.75-8.64 3.75-2.17 0-4.2-0.4-6.08-1.2-1.89-0.8-3.54-1.87-4.96-3.19s-2.53-2.9-3.33-4.74-1.2-3.8-1.2-5.88v-74.91zm110 106.35v-158.03l-32.15 8.92v149.11h32.15zm12.85-100.54v100.54h32.29v-109.46l-32.29 8.92zm100.41 45.6v30.72c-3.3 2.46-6.3 4.49-8.99 6.09-2.69 1.61-5.36 2.41-8 2.41-1.32 0-2.55-0.4-3.68-1.2-1.13-0.81-2.17-1.87-3.12-3.19-0.94-1.32-1.67-2.9-2.19-4.74a21.02 21.02 0 0 1-0.78-5.74c0-2.55 0.8-5 2.41-7.36 1.6-2.36 3.7-4.58 6.3-6.66s5.47-3.99 8.64-5.73a101.5 101.5 0 0 1 9.41-4.6zm32.43 54.94v-79.72c0-4.44-0.85-8.45-2.55-12.04s-4.34-6.66-7.93-9.2c-3.59-2.55-8.14-4.51-13.66-5.88-5.53-1.37-12.11-2.05-19.76-2.05-6.23 0-12.13 0.66-17.7 1.98s-10.48 3.11-14.72 5.38c-4.25 2.27-7.63 4.98-10.13 8.14s-3.75 6.59-3.75 10.27c0 3.96 1.42 7.24 4.25 9.84 2.83 2.59 6.51 3.89 11.04 3.89 2.93 0 5.36-0.42 7.3-1.27 1.93-0.85 3.42-1.98 4.46-3.4 1.03-1.42 1.77-3.07 2.19-4.96a26.37 26.37 0 0 0 0.64-5.8c0-3.49 0.99-6.47 2.97-8.92 1.98-2.46 5.52-3.68 10.62-3.68 4.34 0 7.81 1.41 10.41 4.24 2.6 2.84 3.89 7.65 3.89 14.45v10.48l-3.54 0.85a595.79 595.79 0 0 0-13.17 4.17 163.87 163.87 0 0 0-12.81 4.82c-4.11 1.74-7.95 3.66-11.54 5.73-3.59 2.08-6.73 4.44-9.42 7.08-2.69 2.65-4.81 5.62-6.37 8.92-1.56 3.31-2.34 6.99-2.34 11.05 0 3.96 0.74 7.62 2.2 10.97a25.01 25.01 0 0 0 6.3 8.71c2.74 2.45 6.06 4.39 9.98 5.81 3.92 1.41 8.33 2.12 13.24 2.12 3.59 0 6.7-0.26 9.35-0.78 2.64-0.52 5.02-1.25 7.15-2.19 2.12-0.95 4.03-2.06 5.73-3.33 1.7-1.28 3.45-2.67 5.24-4.18v8.5h32.43z" fill="#fff"/>
  </g>
  <g transform="matrix(1.25 0 0 -1.25 0 258.84)" stroke-width="3.07">
   <circle cx="48.84" cy="149.57" r="16" fill="#6682df" stroke="#4063d8"/>
   <circle cx="211.13" cy="149.57" r="16" fill="#d5635c" stroke="#cb3c33"/>
   <circle cx="232.13" cy="185.57" r="16" fill="#60ad51" stroke="#389826"/>
   <circle cx="253.13" cy="149.57" r="16" fill="#aa79c1" stroke="#9558b2"/>
  </g>
 </g>
</svg>
