<?xml version="1.0" encoding="UTF-8"?>
<svg viewBox="120 0 520 240" xmlns="http://www.w3.org/2000/svg" xmlns:xlink="http://www.w3.org/1999/xlink">
<defs>
<symbol id="u" overflow="visible">
<path d="m24.8 0.28v-64.05h22.56v-1.48h-46.52v1.48h22.55v64.05h1.41z"/>
</symbol>
<symbol id="t" overflow="visible">
<path d="m5.78-65.16h-1.4v65.16h1.4v-32.34h40.92v32.34h1.49v-65.16h-1.49v31.41h-40.92v-31.41z"/>
</symbol>
<symbol id="i" overflow="visible">
<path d="m5.88-31.88h33.75v-1.5h-33.75v-30.39h34.48v-1.39h-35.98v65.16h36.17v-1.39h-34.67v-30.49z"/>
</symbol>
<symbol id="s" overflow="visible">
<path d="m67.77-32.63c0 8.86-3.54 16.79-9.22 22.57-5.78 5.87-13.8 9.5-22.57 9.5s-16.68-3.63-22.46-9.5c-5.69-5.78-9.33-13.71-9.33-22.57s3.64-16.78 9.33-22.56c5.78-5.87 13.7-9.5 22.47-9.5s16.78 3.63 22.56 9.5c5.68 5.78 9.22 13.71 9.22 22.56zm-65.07 0c0 9.24 3.83 17.61 9.79 23.68 5.96 6.15 14.36 9.89 23.5 9.89 9.23 0 17.51-3.74 23.57-9.89 5.97-6.07 9.8-14.44 9.8-23.68s-3.83-17.62-9.8-23.67c-6.06-6.15-14.34-9.89-23.58-9.89-9.14 0-17.53 3.74-23.5 9.89-5.95 6.05-9.78 14.44-9.78 23.67z"/>
</symbol>
<symbol id="r" overflow="visible">
<path d="m5.78-63.77h21.16c24.23 0 24.23 35.24 0 35.24h-12.67v1.4l30.01 27.13h2.14l-30.01-27.13h10.53c26.11 0 26.11-38.12 0-38.12h-22.56v65.25h1.4v-63.77z"/>
</symbol>
<symbol id="q" overflow="visible">
<path d="m5.78-63.11 26.56 39.53h1.22l26.56-39.53v63.11h1.41v-65.25h-1.5l-27.12 39.98-27.03-39.98h-1.5v65.25h1.4v-63.11z"/>
</symbol>
<symbol id="p" overflow="visible">
<path d="m4.38-64.5v64.5h1.5v-24.8h21.06c26.11 0 26.11-40.45 0-40.45h-22.56v0.75zm1.5 38.31v-37.58h21.06c24.23 0 24.23 37.58 0 37.58h-21.06z"/>
</symbol>
<symbol id="g" overflow="visible">
<path d="m5.78-63.77h21.16c24.23 0 24.23 35.24 0 35.24h-12.67v1.4l30.01 27.13h2.14l-30.01-27.13h10.53c26.11 0 26.11-38.12 0-38.12h-22.56v65.25h1.4v-63.77z"/>
</symbol>
<symbol id="o" overflow="visible">
<path d="m67.03-32.63c0 8.86-3.55 16.79-9.23 22.57-5.78 5.87-13.8 9.5-22.57 9.5s-16.68-3.63-22.46-9.5c-5.69-5.78-9.32-13.71-9.32-22.57s3.63-16.78 9.32-22.56c5.78-5.87 13.7-9.5 22.46-9.5s16.79 3.63 22.57 9.5c5.68 5.78 9.23 13.71 9.23 22.56zm-65.08 0c0 9.24 3.83 17.61 9.8 23.68 5.97 6.15 14.34 9.89 23.48 9.89 9.24 0 17.53-3.74 23.6-9.89 5.95-6.07 9.78-14.44 9.78-23.68s-3.83-17.62-9.78-23.67c-6.06-6.15-14.36-9.89-23.6-9.89-9.14 0-17.51 3.74-23.48 9.89-5.97 6.05-9.8 14.44-9.8 23.67z"/>
</symbol>
<symbol id="n" overflow="visible">
<path d="m27.5-0.84-25.36-64.32h-1.58l26.19 66.19h1.59l26.19-66.19h-1.58l-25.45 64.32z"/>
</symbol>
<symbol id="m" overflow="visible">
<path d="m5.88-31.88h33.75v-1.5h-33.75v-30.39h34.48v-1.39h-35.98v65.16h36.17v-1.39h-34.67v-30.49z"/>
</symbol>
</defs>
<g class="layer">
<title>Layer 1</title>
<g transform="scale(.59987)">
<path d="m575.87 147.87h-143.3v-5.38h143.3v-109.66h-146.45v-5.04h152.78v235.12h-304.88v-235.11h6.34v230.1h292.21v-110.03zm231.31 115.04v-224.68l182.87 224.68h6.33v-235.03h-5.94v225.62l-184.06-225.62h-5.53v235.03h6.33z" fill="#fff"/>
<path d="m579.25 28.85 112.01 227.27 112.53-227.18m-168.01 116.09h111.5" fill="#fff" stroke="#000" stroke-width="5.88"/>
<use x="278.61" y="371.5" width="770" height="415" fill="#ffffff" xlink:href="#u"/>
<use x="327.17" y="371.5" width="770" height="415" fill="#ffffff" xlink:href="#t"/>
<use x="379.65" y="371.5" width="770" height="415" fill="#ffffff" xlink:href="#i"/>
<use x="422.62" y="371.5" width="770" height="415" fill="#ffffff" xlink:href="#s"/>
<use x="494.4" y="371.5" width="770" height="415" fill="#ffffff" xlink:href="#r"/>
<use x="543.71" y="371.5" width="770" height="415" fill="#ffffff" xlink:href="#i"/>
<use x="586.68" y="371.5" width="770" height="415" fill="#ffffff" xlink:href="#q"/>
<use x="652.58" y="371.5" width="770" height="415" fill="#ffffff" xlink:href="#g"/>
<use x="685.39" y="371.5" width="770" height="415" fill="#ffffff" xlink:href="#p"/>
<use x="733.95" y="371.5" width="770" height="415" fill="#ffffff" xlink:href="#g"/>
<use x="783.08" y="371.5" width="770" height="415" fill="#ffffff" xlink:href="#o"/>
<use x="851.77" y="371.5" width="770" height="415" fill="#ffffff" xlink:href="#n"/>
<use x="906.77" y="371.5" width="770" height="415" fill="#ffffff" xlink:href="#m"/>
<use x="949.74" y="371.5" width="770" height="415" fill="#ffffff" xlink:href="#g"/>
</g>
</g>
</svg>
