<?xml version="1.0" encoding="UTF-8"?>
<svg data-name="Layer 1" viewBox="0 0 122.88 122.88" xmlns="http://www.w3.org/2000/svg">
<defs>
<style>.cls-1{fill:#1195cf;}</style>
</defs>
<title>sony-vegas</title>
<path class="cls-1" d="M4.31,4.31q0,57.12,0,114.26,57.12,0,114.26,0,0-57.13,0-114.26ZM0,0H122.88V122.88H0V0Z"/>
<path class="cls-1" d="m28.21 27.29h8.16 1.93q9.23 25.11 18.49 50.21c1 2.73 1.94 5.48 2.78 8.27 0.24 0.72 0.42 1.47 0.68 2.19 1.47-5.32 3.49-10.47 5.47-15.62l17.28-45.04h9.53l-27.53 68.28h-9.54q-6.07-15.14-12.1-30.31-7.5-18.8-15-37.59c-0.05-0.13-0.1-0.27-0.14-0.4z"/>
<path d="m28.21 27.29c0 0.13 0.09 0.27 0.14 0.4q7.49 18.79 15 37.59 6.06 15.16 12.1 30.31h9.54l27.51-68.3h-9.53l-17.25 45.07c-2 5.15-4 10.3-5.47 15.62-0.26-0.72-0.44-1.47-0.68-2.19-0.84-2.79-1.78-5.54-2.78-8.27q-9.24-25.11-18.49-50.21c-0.64-0.06-1.29 0-1.93 0h-8.16zm-23.9-23h114.26q0 57.12 0 114.26-57.13 0-114.26 0 0-57.13 0-114.26z"/>
</svg>
